<svg version="1.1" viewBox="0.0 0.0 960.0 240.0" fill="none" stroke="none" stroke-linecap="square" stroke-miterlimit="10" xmlns:xlink="http://www.w3.org/1999/xlink" xmlns="http://www.w3.org/2000/svg"><clipPath id="p.0"><path d="m0 0l960.0 0l0 240.0l-960.0 0l0 -240.0z" clip-rule="nonzero"/></clipPath><g clip-path="url(#p.0)"><path fill="#000000" fill-opacity="0.0" d="m0 0l960.0 0l0 240.0l-960.0 0z" fill-rule="evenodd"/><defs><linearGradient id="p.1" gradientUnits="userSpaceOnUse" gradientTransform="matrix(15.49227354792246 0.0 0.0 15.49227354792246 0.0 0.0)" spreadMethod="pad" x1="61.966372916823275" y1="15.492273548858718" x2="61.96654233494696" y2="1.862604911170834E-9"><stop offset="0.0" stop-color="#ffdb58"/><stop offset="1.0" stop-color="#ffb733"/></linearGradient></defs><path fill="url(#p.1)" d="m0 0l960.0 0l0 240.0l-960.0 0z" fill-rule="evenodd"/><path stroke="#000000" stroke-width="1.0" stroke-linejoin="round" stroke-linecap="butt" d="m0 0l960.0 0l0 240.0l-960.0 0z" fill-rule="evenodd"/><path fill="#ffa500" d="m107.71928 57.124672l0 98.648384l20.30996 0l0 -66.057976l0.26991272 0l41.09224 66.057976l21.65947 0l0 -98.648384l-20.309967 0l0 66.19293l-0.26989746 0l-41.15973 -66.19293z" fill-rule="evenodd"/><path fill="#ffa500" d="m240.44252 97.204796c4.6332855 0 8.171967 1.2145538 10.616058 3.6436539c2.4590912 2.4290924 4.160965 6.2751694 5.105606 11.538216l-31.91565 0c0.4498291 -4.7232513 2.0692291 -8.434372 4.8582 -11.133369c2.7889557 -2.6989975 6.567566 -4.0485 11.335785 -4.0485zm0.6747589 -14.777016c-10.706024 0 -19.470291 3.6211548 -26.29274 10.863472c-6.807495 7.2423096 -10.211212 16.193985 -10.211212 26.855034c0 11.11087 3.3287659 20.152527 9.986282 27.124939c6.6575317 6.972412 15.49675 10.458618 26.51767 10.458618c8.591812 0 15.654175 -1.9867706 21.187134 -5.9602966c5.532959 -3.9885254 9.626434 -10.0312805 12.280457 -18.128265l-17.27359 0c-0.8097229 2.5640411 -2.7214966 4.760727 -5.735382 6.5900574c-3.0138855 1.8143158 -6.2976685 2.7214813 -9.851349 2.7214813c-5.487961 0 -9.708908 -1.4844513 -12.662796 -4.4533386c-2.938919 -2.9689026 -4.5433197 -7.5347137 -4.813217 -13.697426l51.550873 0l0.13494873 -3.6436462c0 -11.29081 -3.1638489 -20.564865 -9.491486 -27.822174c-6.3126526 -7.2723007 -14.754517 -10.908455 -25.325592 -10.908455z" fill-rule="evenodd"/><path fill="#ffa500" d="m292.66815 62.927517l0 21.38956l-11.87561 0l0 13.157623l11.87561 0l0 42.57669c0 5.2180634 1.6493835 9.281555 4.9481506 12.190475c3.3137817 2.8939362 9.221588 4.3408966 17.72342 4.3408966c1.9342957 0 3.8985596 -0.04498291 5.8928223 -0.13494873c2.0092468 -0.08996582 3.823578 -0.26989746 5.442993 -0.5397949l0 -15.316818c-0.8547058 0.17993164 -1.7993469 0.31488037 -2.8339539 0.4048462c-1.0346375 0.08996582 -2.1142273 0.13494873 -3.2388 0.13494873c-3.3287659 0 -5.547943 -0.5697937 -6.6575317 -1.7093658c-1.0946045 -1.1545715 -1.6419067 -3.1938171 -1.6419067 -6.1177216l0 -35.82921l14.372192 0l0 -13.157623l-14.372192 0l0 -21.38956z" fill-rule="evenodd"/><path fill="#ffa500" d="m329.442 84.31708l22.6716 71.45598l20.309967 0l12.145477 -47.974686l0.33737183 0l12.685303 47.974686l20.107544 0l22.604095 -71.45598l-20.174988 0l-13.157623 48.379547l-0.26989746 0l-12.145508 -48.379547l-19.095398 0l-11.87561 48.514496l-0.26989746 0l-13.157623 -48.514496z" fill-rule="evenodd"/><path fill="#ffa500" d="m483.14996 97.204796c5.847809 0 10.233704 2.0467453 13.157623 6.1402206c2.9238892 4.093483 4.3858643 9.693909 4.3858643 16.80127c0 7.2423096 -1.506958 12.857727 -4.520813 16.846252c-3.0138855 3.9735107 -7.3098145 5.9602814 -12.887726 5.9602814c-5.3530273 0 -9.573944 -1.9192963 -12.662811 -5.7578583c-3.0738525 -3.8535767 -4.610779 -9.5364685 -4.610779 -17.048676c0 -7.6921463 1.5369263 -13.435013 4.610779 -17.228607c3.0888672 -3.8085861 7.264801 -5.712883 12.527863 -5.712883zm0.13494873 -14.777016c-11.290802 0 -20.264984 3.4637146 -26.922516 10.391144c-6.6575317 6.927429 -9.986298 16.036552 -9.986298 27.327362c0 11.290802 3.381256 20.377441 10.143738 27.259888c6.7774963 6.8824463 15.699188 10.323669 26.765076 10.323669c11.065887 0 20.002563 -3.4187317 26.810059 -10.256195c6.8224487 -6.8374634 10.233704 -15.946594 10.233704 -27.327362c0 -11.335793 -3.3737793 -20.452408 -10.121246 -27.349854c-6.7474976 -6.91243 -15.72168 -10.368652 -26.922516 -10.368652z" fill-rule="evenodd"/><path fill="#ffa500" d="m574.646 82.42778c-4.8582153 0 -9.348999 1.3644943 -13.472473 4.093483c-4.1085205 2.713997 -7.1973267 6.410118 -9.266602 11.088387l-0.26989746 0l0 -13.292572l-18.623047 0l0 71.45598l19.567688 0l0 -32.792824c0 -6.7924805 1.5819092 -12.212967 4.7457886 -16.261467c3.178772 -4.0484924 8.074463 -6.0727463 14.687012 -6.0727463c1.4394531 0 2.684021 0.0599823 3.7336426 0.17993164c1.0645752 0.10496521 2.1591797 0.2699051 3.2837524 0.49481964l0 -18.218239c-0.62976074 -0.22491455 -1.3045044 -0.38985443 -2.024231 -0.49481964c-0.71972656 -0.11994934 -1.506958 -0.17993164 -2.3616333 -0.17993164z" fill-rule="evenodd"/><path fill="#ffa500" d="m588.54584 57.124672l0 98.648384l19.635193 0l0 -24.628357l7.624695 -7.2872925l19.567749 31.91565l23.818665 0l-30.026367 -45.208214l26.98999 -26.247765l-23.211365 0l-24.763367 25.707962l0 -52.900368z" fill-rule="evenodd"/><path fill="#ffa500" d="m666.6818 57.124672l0 16.126518l19.635254 0l0 -16.126518zm0 27.192406l0 71.45598l19.635254 0l0 -71.45598z" fill-rule="evenodd"/><path fill="#ffa500" d="m742.72614 82.42778c-4.588318 0 -8.7942505 1.0271225 -12.617798 3.0813599c-3.8236084 2.0392456 -6.927429 4.9706573 -9.311584 8.794235l-0.4048462 0l0 -9.986298l-18.623108 0l0 71.45598l19.567749 0l0 -38.123344c0 -6.7025146 1.177063 -11.673172 3.531189 -14.911964c2.3691406 -3.2388 6.2752075 -4.8582 11.71814 -4.8582c4.543335 0 7.767151 1.4319687 9.671448 4.295906c1.9192505 2.8489456 2.8789062 7.062378 2.8789062 12.640312l0 40.95729l19.635254 0l0 -44.66842c0 -9.896324 -2.0617676 -17.146133 -6.1852417 -21.749428c-4.1084595 -4.618286 -10.728516 -6.927429 -19.860107 -6.927429z" fill-rule="evenodd"/><path fill="#ffa500" d="m816.8811 97.204796c5.532959 0 9.71637 1.9042969 12.550354 5.712883c2.8339233 3.7935944 4.2509155 9.176598 4.2509155 16.14901c0 5.6678925 -1.4994507 10.391136 -4.498352 14.169731c-2.9838867 3.7786102 -7.062378 5.6679077 -12.235413 5.6679077c-5.038147 0 -8.944214 -1.8892975 -11.718201 -5.6679077c-2.7589722 -3.778595 -4.1384277 -9.019142 -4.1384277 -15.721657c0 -6.162712 1.4169922 -11.088387 4.2509155 -14.777016c2.8339233 -3.6886368 6.6799927 -5.5329514 11.538208 -5.5329514zm-4.7907104 -14.777016c-9.221558 0 -16.636353 3.3737488 -22.244263 10.121246c-5.5928955 6.7474976 -8.389404 15.15937 -8.389404 25.235634c0 11.155861 2.6765137 19.927605 8.029541 26.315239c5.3530273 6.387619 12.842712 9.581436 22.469177 9.581436c4.8582153 0 9.16156 -0.96713257 12.910217 -2.901413c3.7635498 -1.9342957 6.612549 -4.655777 8.546814 -8.1644745l0.26989746 0l0 9.918823c0 5.397995 -1.3720093 9.611435 -4.115967 12.640305c-2.7439575 3.043869 -6.635071 4.565811 -11.673157 4.565811c-3.8236084 0 -6.994934 -0.77970886 -9.513977 -2.3391418c-2.519104 -1.5444183 -4.2284546 -4.0484924 -5.128113 -7.512207l-19.4328 0c0.58477783 7.2423096 3.8910522 12.872726 9.918823 16.891235c6.027771 4.0335083 13.24762 6.050247 21.659485 6.050247c12.415405 0 21.666931 -2.7814636 27.7547 -8.344406c6.102722 -5.547928 9.154114 -13.112625 9.154114 -22.694077l0 -67.47496l-18.623108 0l0 9.513969l-0.26989746 0c-2.1591797 -3.733612 -4.948181 -6.5675583 -8.366882 -8.501839c-3.4187622 -1.934288 -7.7371216 -2.9014282 -12.9552 -2.9014282z" fill-rule="evenodd"/><path stroke="#666666" stroke-width="1.0" stroke-linejoin="round" stroke-linecap="butt" d="m107.71928 57.124672l0 98.648384l20.30996 0l0 -66.057976l0.26991272 0l41.09224 66.057976l21.65947 0l0 -98.648384l-20.309967 0l0 66.19293l-0.26989746 0l-41.15973 -66.19293z" fill-rule="evenodd"/><path stroke="#666666" stroke-width="1.0" stroke-linejoin="round" stroke-linecap="butt" d="m240.44252 97.204796c4.6332855 0 8.171967 1.2145538 10.616058 3.6436539c2.4590912 2.4290924 4.160965 6.2751694 5.105606 11.538216l-31.91565 0c0.4498291 -4.7232513 2.0692291 -8.434372 4.8582 -11.133369c2.7889557 -2.6989975 6.567566 -4.0485 11.335785 -4.0485zm0.6747589 -14.777016c-10.706024 0 -19.470291 3.6211548 -26.29274 10.863472c-6.807495 7.2423096 -10.211212 16.193985 -10.211212 26.855034c0 11.11087 3.3287659 20.152527 9.986282 27.124939c6.6575317 6.972412 15.49675 10.458618 26.51767 10.458618c8.591812 0 15.654175 -1.9867706 21.187134 -5.9602966c5.532959 -3.9885254 9.626434 -10.0312805 12.280457 -18.128265l-17.27359 0c-0.8097229 2.5640411 -2.7214966 4.760727 -5.735382 6.5900574c-3.0138855 1.8143158 -6.2976685 2.7214813 -9.851349 2.7214813c-5.487961 0 -9.708908 -1.4844513 -12.662796 -4.4533386c-2.938919 -2.9689026 -4.5433197 -7.5347137 -4.813217 -13.697426l51.550873 0l0.13494873 -3.6436462c0 -11.29081 -3.1638489 -20.564865 -9.491486 -27.822174c-6.3126526 -7.2723007 -14.754517 -10.908455 -25.325592 -10.908455z" fill-rule="evenodd"/><path stroke="#666666" stroke-width="1.0" stroke-linejoin="round" stroke-linecap="butt" d="m292.66815 62.927517l0 21.38956l-11.87561 0l0 13.157623l11.87561 0l0 42.57669c0 5.2180634 1.6493835 9.281555 4.9481506 12.190475c3.3137817 2.8939362 9.221588 4.3408966 17.72342 4.3408966c1.9342957 0 3.8985596 -0.04498291 5.8928223 -0.13494873c2.0092468 -0.08996582 3.823578 -0.26989746 5.442993 -0.5397949l0 -15.316818c-0.8547058 0.17993164 -1.7993469 0.31488037 -2.8339539 0.4048462c-1.0346375 0.08996582 -2.1142273 0.13494873 -3.2388 0.13494873c-3.3287659 0 -5.547943 -0.5697937 -6.6575317 -1.7093658c-1.0946045 -1.1545715 -1.6419067 -3.1938171 -1.6419067 -6.1177216l0 -35.82921l14.372192 0l0 -13.157623l-14.372192 0l0 -21.38956z" fill-rule="evenodd"/><path stroke="#666666" stroke-width="1.0" stroke-linejoin="round" stroke-linecap="butt" d="m329.442 84.31708l22.6716 71.45598l20.309967 0l12.145477 -47.974686l0.33737183 0l12.685303 47.974686l20.107544 0l22.604095 -71.45598l-20.174988 0l-13.157623 48.379547l-0.26989746 0l-12.145508 -48.379547l-19.095398 0l-11.87561 48.514496l-0.26989746 0l-13.157623 -48.514496z" fill-rule="evenodd"/><path stroke="#666666" stroke-width="1.0" stroke-linejoin="round" stroke-linecap="butt" d="m483.14996 97.204796c5.847809 0 10.233704 2.0467453 13.157623 6.1402206c2.9238892 4.093483 4.3858643 9.693909 4.3858643 16.80127c0 7.2423096 -1.506958 12.857727 -4.520813 16.846252c-3.0138855 3.9735107 -7.3098145 5.9602814 -12.887726 5.9602814c-5.3530273 0 -9.573944 -1.9192963 -12.662811 -5.7578583c-3.0738525 -3.8535767 -4.610779 -9.5364685 -4.610779 -17.048676c0 -7.6921463 1.5369263 -13.435013 4.610779 -17.228607c3.0888672 -3.8085861 7.264801 -5.712883 12.527863 -5.712883zm0.13494873 -14.777016c-11.290802 0 -20.264984 3.4637146 -26.922516 10.391144c-6.6575317 6.927429 -9.986298 16.036552 -9.986298 27.327362c0 11.290802 3.381256 20.377441 10.143738 27.259888c6.7774963 6.8824463 15.699188 10.323669 26.765076 10.323669c11.065887 0 20.002563 -3.4187317 26.810059 -10.256195c6.8224487 -6.8374634 10.233704 -15.946594 10.233704 -27.327362c0 -11.335793 -3.3737793 -20.452408 -10.121246 -27.349854c-6.7474976 -6.91243 -15.72168 -10.368652 -26.922516 -10.368652z" fill-rule="evenodd"/><path stroke="#666666" stroke-width="1.0" stroke-linejoin="round" stroke-linecap="butt" d="m574.646 82.42778c-4.8582153 0 -9.348999 1.3644943 -13.472473 4.093483c-4.1085205 2.713997 -7.1973267 6.410118 -9.266602 11.088387l-0.26989746 0l0 -13.292572l-18.623047 0l0 71.45598l19.567688 0l0 -32.792824c0 -6.7924805 1.5819092 -12.212967 4.7457886 -16.261467c3.178772 -4.0484924 8.074463 -6.0727463 14.687012 -6.0727463c1.4394531 0 2.684021 0.0599823 3.7336426 0.17993164c1.0645752 0.10496521 2.1591797 0.2699051 3.2837524 0.49481964l0 -18.218239c-0.62976074 -0.22491455 -1.3045044 -0.38985443 -2.024231 -0.49481964c-0.71972656 -0.11994934 -1.506958 -0.17993164 -2.3616333 -0.17993164z" fill-rule="evenodd"/><path stroke="#666666" stroke-width="1.0" stroke-linejoin="round" stroke-linecap="butt" d="m588.54584 57.124672l0 98.648384l19.635193 0l0 -24.628357l7.624695 -7.2872925l19.567749 31.91565l23.818665 0l-30.026367 -45.208214l26.98999 -26.247765l-23.211365 0l-24.763367 25.707962l0 -52.900368z" fill-rule="evenodd"/><path stroke="#666666" stroke-width="1.0" stroke-linejoin="round" stroke-linecap="butt" d="m666.6818 57.124672l0 16.126518l19.635254 0l0 -16.126518zm0 27.192406l0 71.45598l19.635254 0l0 -71.45598z" fill-rule="evenodd"/><path stroke="#666666" stroke-width="1.0" stroke-linejoin="round" stroke-linecap="butt" d="m742.72614 82.42778c-4.588318 0 -8.7942505 1.0271225 -12.617798 3.0813599c-3.8236084 2.0392456 -6.927429 4.9706573 -9.311584 8.794235l-0.4048462 0l0 -9.986298l-18.623108 0l0 71.45598l19.567749 0l0 -38.123344c0 -6.7025146 1.177063 -11.673172 3.531189 -14.911964c2.3691406 -3.2388 6.2752075 -4.8582 11.71814 -4.8582c4.543335 0 7.767151 1.4319687 9.671448 4.295906c1.9192505 2.8489456 2.8789062 7.062378 2.8789062 12.640312l0 40.95729l19.635254 0l0 -44.66842c0 -9.896324 -2.0617676 -17.146133 -6.1852417 -21.749428c-4.1084595 -4.618286 -10.728516 -6.927429 -19.860107 -6.927429z" fill-rule="evenodd"/><path stroke="#666666" stroke-width="1.0" stroke-linejoin="round" stroke-linecap="butt" d="m816.8811 97.204796c5.532959 0 9.71637 1.9042969 12.550354 5.712883c2.8339233 3.7935944 4.2509155 9.176598 4.2509155 16.14901c0 5.6678925 -1.4994507 10.391136 -4.498352 14.169731c-2.9838867 3.7786102 -7.062378 5.6679077 -12.235413 5.6679077c-5.038147 0 -8.944214 -1.8892975 -11.718201 -5.6679077c-2.7589722 -3.778595 -4.1384277 -9.019142 -4.1384277 -15.721657c0 -6.162712 1.4169922 -11.088387 4.2509155 -14.777016c2.8339233 -3.6886368 6.6799927 -5.5329514 11.538208 -5.5329514zm-4.7907104 -14.777016c-9.221558 0 -16.636353 3.3737488 -22.244263 10.121246c-5.5928955 6.7474976 -8.389404 15.15937 -8.389404 25.235634c0 11.155861 2.6765137 19.927605 8.029541 26.315239c5.3530273 6.387619 12.842712 9.581436 22.469177 9.581436c4.8582153 0 9.16156 -0.96713257 12.910217 -2.901413c3.7635498 -1.9342957 6.612549 -4.655777 8.546814 -8.1644745l0.26989746 0l0 9.918823c0 5.397995 -1.3720093 9.611435 -4.115967 12.640305c-2.7439575 3.043869 -6.635071 4.565811 -11.673157 4.565811c-3.8236084 0 -6.994934 -0.77970886 -9.513977 -2.3391418c-2.519104 -1.5444183 -4.2284546 -4.0484924 -5.128113 -7.512207l-19.4328 0c0.58477783 7.2423096 3.8910522 12.872726 9.918823 16.891235c6.027771 4.0335083 13.24762 6.050247 21.659485 6.050247c12.415405 0 21.666931 -2.7814636 27.7547 -8.344406c6.102722 -5.547928 9.154114 -13.112625 9.154114 -22.694077l0 -67.47496l-18.623108 0l0 9.513969l-0.26989746 0c-2.1591797 -3.733612 -4.948181 -6.5675583 -8.366882 -8.501839c-3.4187622 -1.934288 -7.7371216 -2.9014282 -12.9552 -2.9014282z" fill-rule="evenodd"/><path fill="#bf9000" d="m266.89523 182.87633c-1.9293213 0 -3.518982 0.47138977 -4.7690125 1.4141846c-1.2472534 0.9400635 -1.8708496 2.212967 -1.8708496 3.8187103c0 1.2470856 0.44265747 2.252365 1.3279724 3.0158386c0.88531494 0.7607422 2.63089 1.3815765 5.236725 1.8624878c1.9543762 0.36679077 3.3032227 0.80693054 4.04657 1.3204498c0.74331665 0.513504 1.1149902 1.194107 1.1149902 2.0417938c0 1.0514679 -0.4050598 1.8570557 -1.21521 2.416748c-0.81015015 0.5569916 -1.9543762 0.83547974 -3.4327087 0.83547974c-1.5785217 0 -2.8591614 -0.37631226 -3.841919 -1.1289062c-0.97998047 -0.7553253 -1.4783325 -1.8135834 -1.4950256 -3.1747894l-2.3051758 0c0.016723633 2.037735 0.72665405 3.5986328 2.1297913 4.6827087c1.4031372 1.0840759 3.2113647 1.6261139 5.424652 1.6261139c1.9961243 0 3.6888123 -0.47276306 5.0780334 -1.4182587c1.3919983 -0.94551086 2.0880127 -2.2496643 2.0880127 -3.912445c0 -1.4345703 -0.48440552 -2.555313 -1.4532471 -3.362259c-0.96884155 -0.8069458 -2.4304504 -1.4060364 -4.3848267 -1.7972717c-2.6977234 -0.5298157 -4.3542175 -1.0188751 -4.9694824 -1.4671783c-0.6124878 -0.44828796 -0.9187012 -1.022934 -0.9187012 -1.7239075c0 -0.9781189 0.35913086 -1.7293549 1.0773926 -2.2537384c0.71829224 -0.5270996 1.7288818 -0.79063416 3.0317993 -0.79063416c1.369751 0 2.4346313 0.30429077 3.1946716 0.91290283c0.76000977 0.60588074 1.211029 1.5201416 1.3530273 2.7427826l2.3051453 0c-0.075164795 -1.8502655 -0.7098999 -3.2563019 -1.9042664 -4.218109c-1.1943359 -0.96180725 -2.8104553 -1.4427032 -4.848358 -1.4427032z" fill-rule="evenodd"/><path fill="#bf9000" d="m275.8027 188.23148l4.2595215 12.947739l2.3552856 0l2.6684875 -10.294617l0.03756714 0l0.025054932 0.061141968l2.6810303 10.233475l2.3051453 0l0.025054932 -0.03666687l4.2219543 -12.911072l-2.2675781 0l-2.9691467 10.588058l-0.03756714 0l-0.025054932 -0.061141968l-2.7687073 -10.5269165l-2.3803406 0l-2.6684875 10.588058l-0.050109863 0l-3.0067444 -10.588058z" fill-rule="evenodd"/><path fill="#bf9000" d="m296.57422 183.30424l0 2.6042175l2.1799011 0l0 -2.6042175zm0 4.927231l0 12.947739l2.1799011 0l0 -12.947739z" fill-rule="evenodd"/><path fill="#bf9000" d="m306.6969 183.0964c-1.2026978 0 -2.1116638 0.28120422 -2.7269287 0.8436127c-0.6124878 0.56240845 -0.9187317 1.3204498 -0.9187317 2.274109l0 2.0173492l-2.2299805 0l0 1.8828735l2.2299805 0l0 11.064865l2.1798706 0l0 -11.064865l2.5682678 0l0 -1.8828735l-2.5682678 0l0 -1.8584137c0 -0.44013977 0.12530518 -0.78248596 0.3758545 -1.027008c0.25054932 -0.2445221 0.6806946 -0.36679077 1.2904053 -0.36679077c0.1670227 0 0.37164307 0.0149383545 0.6138611 0.044830322c0.24221802 0.027160645 0.44683838 0.0692749 0.6138916 0.12634277l0 -1.8461914c-0.17541504 -0.057052612 -0.41204834 -0.10595703 -0.7099304 -0.14671326c-0.29510498 -0.040756226 -0.5345459 -0.06112671 -0.71829224 -0.06112671zm3.8962402 1.2593079l0 3.875763l-2.2675781 0l0 1.8828735l2.2675781 0l0 8.350616c0 0.97810364 0.20462036 1.6750183 0.6138611 2.0907135c0.40927124 0.4156952 1.2110596 0.62353516 2.4053955 0.62353516l1.8040466 0l0 -1.8828583l-0.6138611 0c-0.47607422 0 -0.9340515 -0.017654419 -1.3739319 -0.052978516c-0.43710327 -0.03804016 -0.65563965 -0.37901306 -0.65563965 -1.0229492l0 -8.106079l2.6434326 0l0 -1.8828735l-2.6434326 0l0 -3.875763z" fill-rule="evenodd"/><path fill="#bf9000" d="m330.62552 191.64264c1.1442261 0 2.0462341 0.36543274 2.7060547 1.0962982c0.65982056 0.7281494 0.9897156 1.7035522 0.9897156 2.926178c0 1.1411285 -0.34243774 2.0825653 -1.0272827 2.824295c-0.6848755 0.741745 -1.5660095 1.1126099 -2.6434326 1.1126099c-1.127533 0 -2.0379028 -0.3681488 -2.7311096 -1.1044617c-0.6932373 -0.7390137 -1.0398254 -1.6913147 -1.0398254 -2.8568878c0 -1.1818848 0.33963013 -2.143692 1.0189209 -2.885437c0.6820984 -0.74172974 1.5910645 -1.1125946 2.7269592 -1.1125946zm0.35076904 -8.2161255c-2.1882324 0 -3.8502808 0.81781006 -4.986145 2.4534302c-1.1358948 1.6328888 -1.7038269 3.98172 -1.7038269 7.046463c0 2.8772736 0.5275574 5.0236816 1.5827026 6.4392395c1.0579224 1.4128113 2.6183777 2.1192322 4.6813354 2.1192322c1.9209595 0 3.4131775 -0.57055664 4.4766846 -1.7117004c1.0662842 -1.1411285 1.5994263 -2.5634613 1.5994263 -4.2669983c0 -1.7035522 -0.516449 -3.0864868 -1.5493164 -4.148819c-1.0300903 -1.0650635 -2.3719788 -1.59758 -4.0256653 -1.59758c-1.035675 0 -1.927948 0.19425964 -2.6768494 0.5827942c-0.74612427 0.38580322 -1.3655396 0.96995544 -1.8583374 1.7524414l-0.050109863 -0.06112671c0.05847168 -2.208908 0.4565735 -3.881195 1.1943665 -5.0168915c0.74053955 -1.1384125 1.8123779 -1.7076263 3.2155151 -1.7076263c0.8352051 0 1.5242615 0.23094177 2.0671387 0.6928253c0.5428772 0.45916748 0.87280273 1.1126099 0.9897156 1.9602966l2.1799011 0c-0.14199829 -1.4427032 -0.65844727 -2.5593872 -1.5493164 -3.3500214c-0.88812256 -0.7906494 -2.0838318 -1.1859589 -3.5872192 -1.1859589z" fill-rule="evenodd"/><path fill="#bf9000" d="m339.70837 198.40382l0 2.7753906l2.843872 0l0 -2.7753906z" fill-rule="evenodd"/><path fill="#bf9000" d="m351.8105 185.30937c0.65145874 0 1.1915588 0.12498474 1.6203003 0.37493896c0.43151855 0.24725342 0.7892456 0.5705719 1.0732117 0.9699707c0.27563477 0.39123535 0.48583984 0.8395386 0.6305847 1.3448944c0.14755249 0.50535583 0.25476074 1.0229492 0.32156372 1.5527496c0.06680298 0.5298157 0.104400635 1.0514679 0.11276245 1.5649872c0.008331299 0.513504 0.012512207 0.97810364 0.012512207 1.3937988c0 1.2389374 -0.06680298 2.3026428 -0.20043945 3.1910858c-0.13363647 0.88845825 -0.34661865 1.6220398 -0.63894653 2.2007446c-0.58462524 1.1329803 -1.5534668 1.6994781 -2.9064941 1.6994781c-1.2193909 0 -2.1506653 -0.49313354 -2.7937622 -1.4794006c-0.309021 -0.50535583 -0.5456543 -1.223999 -0.7099304 -2.1559143c-0.1614685 -0.9346466 -0.24221802 -2.111084 -0.24221802 -3.5293427c0 -2.820221 0.32574463 -4.715317 0.97720337 -5.685272c0.33407593 -0.48905945 0.73080444 -0.8517761 1.190155 -1.08815c0.4593811 -0.2363739 0.97720337 -0.35456848 1.5534973 -0.35456848zm0.025054932 -1.8828583c-2.004486 0 -3.5162048 0.6602173 -4.5351562 1.9806671c-1.0106201 1.3041534 -1.5158997 3.6556854 -1.5158997 7.0546265c0 3.3744812 0.50527954 5.7219543 1.5158997 7.042404c1.0022278 1.3204498 2.5139465 1.9806671 4.5351562 1.9806671c1.0189514 0 1.9056396 -0.167099 2.6601257 -0.50128174c0.75723267 -0.33418274 1.3864441 -0.8191681 1.8875427 -1.4549408c0.5178528 -0.6602173 0.8992615 -1.570404 1.1442566 -2.7305603c0.24777222 -1.162857 0.37164307 -2.6082916 0.37164307 -4.3362885c0 -3.439682 -0.50527954 -5.7993774 -1.5158997 -7.079071c-0.51782227 -0.66023254 -1.1511841 -1.15065 -1.9000854 -1.4712524c-0.74609375 -0.32331848 -1.6286316 -0.4849701 -2.647583 -0.4849701z" fill-rule="evenodd"/><path fill="#bf9000" d="m365.80432 188.51268l0 5.4774323l-5.6000366 0l0 1.6994629l5.6000366 0l0 5.4896393l1.741394 0l0 -5.4896393l5.5875244 0l0 -1.6994629l-5.5875244 0l0 -5.4774323z" fill-rule="evenodd"/><path fill="#bf9000" d="m391.34906 194.4914l0 2.2251892c0 0.7335968 -0.36749268 1.3978882 -1.102478 1.9929047c-0.73498535 0.5950165 -1.7163391 0.89253235 -2.9440918 0.89253235c-0.81015015 0 -1.4407349 -0.167099 -1.8917236 -0.50128174c-0.4510193 -0.334198 -0.6765442 -0.8028717 -0.6765442 -1.4060364c0 -0.6846771 0.23388672 -1.2144928 0.7015991 -1.5894318c0.4677124 -0.37493896 1.1859741 -0.6316986 2.1548157 -0.7702637c0.96884155 -0.13041687 1.745575 -0.240448 2.3302307 -0.33010864c0.58462524 -0.089660645 1.0606995 -0.26083374 1.4281921 -0.513504zm-2.7812195 -6.5533447c-1.7456055 0 -3.1028137 0.36271667 -4.0716248 1.08815c-0.96884155 0.72543335 -1.4866638 1.8054199 -1.5534973 3.2399902l2.1799011 0c0.041748047 -0.83955383 0.33129883 -1.4590149 0.8685913 -1.8584137c0.5401001 -0.3993988 1.348877 -0.5990906 2.4262695 -0.5990906c1.0273132 0 1.7762146 0.17796326 2.246704 0.5338898c0.47329712 0.3531952 0.7099304 0.888443 0.7099304 1.6057281c0 0.4727478 -0.16983032 0.8273163 -0.50949097 1.0636902c-0.33685303 0.2363739 -0.98135376 0.4156952 -1.9334717 0.53796387c-2.8146667 0.34233093 -4.6019897 0.8544922 -5.36203 1.5364532c-0.7600403 0.67922974 -1.1400452 1.601654 -1.1400452 2.7672272c0 1.1574402 0.3883667 2.0526733 1.1651001 2.68573c0.7767334 0.6303406 1.8499756 0.94551086 3.2197266 0.94551086c0.96884155 0 1.8457947 -0.167099 2.63089 -0.50128174c0.7850952 -0.33418274 1.4657898 -0.8354645 2.0420837 -1.5038452c0 0.67652893 0.1586914 1.1805267 0.4760437 1.5119934c0.3173828 0.3287506 0.7767639 0.49313354 1.3781128 0.49313354c0.309021 0 0.59436035 -0.03125 0.8560791 -0.09373474c0.26446533 -0.059768677 0.49694824 -0.14671326 0.6973877 -0.26083374l0 -1.6505585c-0.10858154 0.032608032 -0.221344 0.06112671 -0.33825684 0.08558655c-0.11694336 0.02444458 -0.22549438 0.03668213 -0.32574463 0.03668213c-0.4593506 0 -0.6890259 -0.24453735 -0.6890259 -0.73358154c0 -0.48905945 0 -2.9791718 0 -7.4703217c0 -1.0514679 -0.3786316 -1.8910217 -1.1358948 -2.5186462c-0.75445557 -0.62760925 -2.033722 -0.9414215 -3.837738 -0.9414215z" fill-rule="evenodd"/><path fill="#bf9000" d="m403.35095 187.93805c-0.98553467 0 -1.8318787 0.19018555 -2.539032 0.57055664c-0.7043457 0.3776703 -1.2987366 0.9699707 -1.7831726 1.7769012l-0.050109863 0l0 -2.0540314l-2.054596 0l0 12.947739l2.1799011 0l0 -7.3969574c0 -1.1737366 0.34381104 -2.1287537 1.0314636 -2.8650513c0.6904297 -0.7390137 1.6495361 -1.1085205 2.8772888 -1.1085205c0.8518982 0 1.517273 0.23908997 1.9961243 0.71728516c0.48162842 0.47546387 0.7224426 1.0799866 0.7224426 1.8135681l0 8.839676l2.1799011 0l0 -8.619598c0 -1.4834595 -0.36190796 -2.624588 -1.0857544 -3.4233856c-0.72106934 -0.79878235 -1.8792114 -1.1981812 -3.4744568 -1.1981812z" fill-rule="evenodd"/><path fill="#bf9000" d="m416.73093 189.80869c1.3530273 0 2.3928528 0.4510193 3.1194763 1.3530579c0.72662354 0.89930725 1.0899353 2.0866241 1.0899353 3.5619507c0 1.4508667 -0.35354614 2.627304 -1.0606995 3.5293427c-0.7043457 0.8993225 -1.699646 1.3489838 -2.9858398 1.3489838c-1.2611694 0 -2.262024 -0.44966125 -3.0025635 -1.3489838c-0.73776245 -0.9020386 -1.1066589 -2.0499573 -1.1066589 -3.443756c0 -1.5486755 0.34384155 -2.7686005 1.0314941 -3.6597748c0.6904297 -0.8938751 1.6620483 -1.3408203 2.914856 -1.3408203zm4.134247 -6.5044403l0 6.6511536l-0.050109863 0c-0.43429565 -0.6602173 -1.0426025 -1.161499 -1.8249207 -1.5038452c-0.7795105 -0.34233093 -1.6035767 -0.513504 -2.4721985 -0.513504c-1.8792114 0 -3.3561401 0.62353516 -4.4307556 1.870636c-1.0718384 1.2470856 -1.6077881 2.8691254 -1.6077881 4.866104c0 2.0295715 0.5526428 3.6719818 1.657898 4.927231c1.1080322 1.2552338 2.5891418 1.8828583 4.4432983 1.8828583c0.98553467 0 1.8513489 -0.17524719 2.5974731 -0.5257416c0.74890137 -0.35047913 1.2945557 -0.85990906 1.6369934 -1.5282898l0.050109863 0l0 1.7483673l2.1799011 0l0 -17.87497z" fill-rule="evenodd"/><path fill="#bf9000" d="m440.04565 182.87633c-1.9293213 0 -3.5190125 0.47138977 -4.7690125 1.4141846c-1.2472534 0.9400635 -1.8708496 2.212967 -1.8708496 3.8187103c0 1.2470856 0.44265747 2.252365 1.3279724 3.0158386c0.88531494 0.7607422 2.63089 1.3815765 5.236725 1.8624878c1.9543762 0.36679077 3.3032227 0.80693054 4.04657 1.3204498c0.74331665 0.513504 1.1149902 1.194107 1.1149902 2.0417938c0 1.0514679 -0.40509033 1.8570557 -1.21521 2.416748c-0.81015015 0.5569916 -1.9544067 0.83547974 -3.4327087 0.83547974c-1.5785217 0 -2.859192 -0.37631226 -3.8419495 -1.1289062c-0.97994995 -0.7553253 -1.478302 -1.8135834 -1.4949951 -3.1747894l-2.3051758 0c0.016693115 2.037735 0.72662354 3.5986328 2.1297607 4.6827087c1.4031677 1.0840759 3.2113647 1.6261139 5.4246826 1.6261139c1.9961243 0 3.6888123 -0.47276306 5.0780334 -1.4182587c1.3919983 -0.94551086 2.0880127 -2.2496643 2.0880127 -3.912445c0 -1.4345703 -0.48443604 -2.555313 -1.4532776 -3.362259c-0.96881104 -0.8069458 -2.43042 -1.4060364 -4.384796 -1.7972717c-2.6977234 -0.5298157 -4.3542175 -1.0188751 -4.9694824 -1.4671783c-0.6124878 -0.44828796 -0.9187317 -1.022934 -0.9187317 -1.7239075c0 -0.9781189 0.35916138 -1.7293549 1.0774231 -2.2537384c0.7182617 -0.5270996 1.7288818 -0.79063416 3.0317993 -0.79063416c1.3697205 0 2.4346008 0.30429077 3.194641 0.91290283c0.7600403 0.60588074 1.2110596 1.5201416 1.3530273 2.7427826l2.3051758 0c-0.075164795 -1.8502655 -0.7099304 -3.2563019 -1.9042664 -4.218109c-1.1943359 -0.96180725 -2.8104553 -1.4427032 -4.848358 -1.4427032z" fill-rule="evenodd"/><path fill="#bf9000" d="m448.9531 188.23148l4.259552 12.947739l2.3552856 0l2.6684875 -10.294617l0.03756714 0l0.025054932 0.061141968l2.6809998 10.233475l2.3051758 0l0.025054932 -0.03666687l4.2219543 -12.911072l-2.2675781 0l-2.9691467 10.588058l-0.037597656 0l-0.025054932 -0.061141968l-2.7687073 -10.5269165l-2.38031 0l-2.6684875 10.588058l-0.050109863 0l-3.0067444 -10.588058z" fill-rule="evenodd"/><path fill="#bf9000" d="m469.72464 183.30424l0 2.6042175l2.1799011 0l0 -2.6042175zm0 4.927231l0 12.947739l2.1799011 0l0 -12.947739z" fill-rule="evenodd"/><path fill="#bf9000" d="m479.84732 183.0964c-1.2026978 0 -2.1116638 0.28120422 -2.7269287 0.8436127c-0.6124878 0.56240845 -0.9187317 1.3204498 -0.9187317 2.274109l0 2.0173492l-2.230011 0l0 1.8828735l2.230011 0l0 11.064865l2.1798706 0l0 -11.064865l2.5682678 0l0 -1.8828735l-2.5682678 0l0 -1.8584137c0 -0.44013977 0.12527466 -0.78248596 0.3758545 -1.027008c0.25054932 -0.2445221 0.6806946 -0.36679077 1.2903748 -0.36679077c0.16705322 0 0.37167358 0.0149383545 0.6138916 0.044830322c0.24221802 0.027160645 0.44683838 0.0692749 0.6138611 0.12634277l0 -1.8461914c-0.17538452 -0.057052612 -0.41201782 -0.10595703 -0.7099304 -0.14671326c-0.29510498 -0.040756226 -0.5345154 -0.06112671 -0.7182617 -0.06112671zm3.8962402 1.2593079l0 3.875763l-2.2675781 0l0 1.8828735l2.2675781 0l0 8.350616c0 0.97810364 0.20462036 1.6750183 0.6138611 2.0907135c0.40924072 0.4156952 1.2110596 0.62353516 2.4053955 0.62353516l1.8040466 0l0 -1.8828583l-0.6138916 0c-0.4760437 0 -0.934021 -0.017654419 -1.3739014 -0.052978516c-0.43710327 -0.03804016 -0.65563965 -0.37901306 -0.65563965 -1.0229492l0 -8.106079l2.6434326 0l0 -1.8828735l-2.6434326 0l0 -3.875763z" fill-rule="evenodd"/><path fill="#bf9000" d="m505.78043 185.30937c1.2778625 0 2.246704 0.271698 2.9064941 0.815094c0.65982056 0.54067993 0.9897156 1.361206 0.9897156 2.4615784c0 1.116684 -0.33407593 1.9426422 -1.0022278 2.4778748c-0.6681824 0.53253174 -1.5827026 0.7987976 -2.7436523 0.7987976l-5.0362854 0l0 -6.5533447zm-7.3164062 -2.005127l0 17.87497l2.4304504 0l0 -7.311371l5.8881836 0c1.5618591 0 2.8397217 -0.44151306 3.8335876 -1.3245239c0.9938965 -0.8857422 1.4908752 -2.204834 1.4908752 -3.9572754c0 -1.7442932 -0.49697876 -3.060669 -1.4908752 -3.9491272c-0.99386597 -0.888443 -2.3302002 -1.3326721 -4.008972 -1.3326721z" fill-rule="evenodd"/><path fill="#bf9000" d="m522.1671 194.4914l0 2.2251892c0 0.7335968 -0.36749268 1.3978882 -1.102478 1.9929047c-0.7349243 0.5950165 -1.7163086 0.89253235 -2.9440918 0.89253235c-0.8101196 0 -1.4407349 -0.167099 -1.8917236 -0.50128174c-0.45098877 -0.334198 -0.6765137 -0.8028717 -0.6765137 -1.4060364c0 -0.6846771 0.23388672 -1.2144928 0.7015991 -1.5894318c0.4677124 -0.37493896 1.1859741 -0.6316986 2.1547852 -0.7702637c0.9688721 -0.13041687 1.7456055 -0.240448 2.3302612 -0.33010864c0.5845947 -0.089660645 1.060669 -0.26083374 1.4281616 -0.513504zm-2.781189 -6.5533447c-1.7456055 0 -3.1027832 0.36271667 -4.0716553 1.08815c-0.96881104 0.72543335 -1.4866333 1.8054199 -1.5534668 3.2399902l2.1798706 0c0.041748047 -0.83955383 0.33129883 -1.4590149 0.8685913 -1.8584137c0.5401001 -0.3993988 1.348877 -0.5990906 2.4262695 -0.5990906c1.0273438 0 1.7762451 0.17796326 2.246704 0.5338898c0.47332764 0.3531952 0.70996094 0.888443 0.70996094 1.6057281c0 0.4727478 -0.16986084 0.8273163 -0.50946045 1.0636902c-0.33691406 0.2363739 -0.9813843 0.4156952 -1.9335327 0.53796387c-2.8146362 0.34233093 -4.6019897 0.8544922 -5.3619995 1.5364532c-0.7600708 0.67922974 -1.1400757 1.601654 -1.1400757 2.7672272c0 1.1574402 0.3883667 2.0526733 1.1651001 2.68573c0.77679443 0.6303406 1.8499756 0.94551086 3.2197266 0.94551086c0.9688721 0 1.8458252 -0.167099 2.6309204 -0.50128174c0.7850952 -0.33418274 1.4657593 -0.8354645 2.0420532 -1.5038452c0 0.67652893 0.1586914 1.1805267 0.47607422 1.5119934c0.3173828 0.3287506 0.7767334 0.49313354 1.3781128 0.49313354c0.309021 0 0.59436035 -0.03125 0.8560791 -0.09373474c0.26446533 -0.059768677 0.49694824 -0.14671326 0.6973877 -0.26083374l0 -1.6505585c-0.10858154 0.032608032 -0.22131348 0.06112671 -0.33825684 0.08558655c-0.11694336 0.02444458 -0.2255249 0.03668213 -0.32574463 0.03668213c-0.4593506 0 -0.6890259 -0.24453735 -0.6890259 -0.73358154c0 -0.48905945 0 -2.9791718 0 -7.4703217c0 -1.0514679 -0.3786621 -1.8910217 -1.1358643 -2.5186462c-0.7545166 -0.62760925 -2.0337524 -0.9414215 -3.8377686 -0.9414215z" fill-rule="evenodd"/><path fill="#bf9000" d="m533.27954 187.93805c-1.9376831 0 -3.4647217 0.6262665 -4.5811157 1.8787842c-1.1135864 1.2498016 -1.6704102 2.9343262 -1.6704102 5.0535736c0 2.037735 0.55126953 3.6502533 1.6536865 4.83757c1.102478 1.1846008 2.6184082 1.7769012 4.5477295 1.7769012c1.6536865 0 2.9816895 -0.43608093 3.9838867 -1.3082275c1.0022583 -0.8721466 1.6245117 -2.115158 1.8666992 -3.7290344l-2.2299805 0c-0.14196777 0.98625183 -0.5206299 1.7592316 -1.1358643 2.318924c-0.6124878 0.5569916 -1.4490967 0.83547974 -2.5098267 0.83547974c-1.1943359 0 -2.1381226 -0.42929077 -2.8313599 -1.287857c-0.69317627 -0.8612671 -1.0397949 -2.009201 -1.0397949 -3.443756c0 -1.6057281 0.35076904 -2.850113 1.0523682 -3.7331238c0.7015381 -0.8857269 1.7288818 -1.328598 3.0819092 -1.328598c0.8685913 0 1.5882568 0.22007751 2.1589966 0.6602173c0.5734863 0.44015503 0.947937 1.0800018 1.123352 1.9195404l2.255066 0c-0.17541504 -1.4671631 -0.7684326 -2.5756836 -1.7789917 -3.3255768c-1.0106201 -0.7498779 -2.3260498 -1.1248169 -3.94635 -1.1248169z" fill-rule="evenodd"/><path fill="#bf9000" d="m541.64825 183.30424l0 17.87497l2.1799316 0l0 -4.902771l2.0545654 -1.8584137l4.5477295 6.7611847l2.7686768 0l-5.6501465 -8.24057l5.26178 -4.7071686l-2.9190674 0l-6.0635376 5.6608124l0 -10.588043z" fill-rule="evenodd"/><path fill="#bf9000" d="m563.0462 194.4914l0 2.2251892c0 0.7335968 -0.36749268 1.3978882 -1.102478 1.9929047c-0.73498535 0.5950165 -1.7163086 0.89253235 -2.9440918 0.89253235c-0.8101196 0 -1.4407349 -0.167099 -1.8917236 -0.50128174c-0.45098877 -0.334198 -0.6765137 -0.8028717 -0.6765137 -1.4060364c0 -0.6846771 0.23382568 -1.2144928 0.7015991 -1.5894318c0.4677124 -0.37493896 1.1859741 -0.6316986 2.1547852 -0.7702637c0.9688721 -0.13041687 1.7456055 -0.240448 2.3302612 -0.33010864c0.5845947 -0.089660645 1.060669 -0.26083374 1.4281616 -0.513504zm-2.78125 -6.5533447c-1.7455444 0 -3.1027832 0.36271667 -4.071594 1.08815c-0.96881104 0.72543335 -1.4866333 1.8054199 -1.5534668 3.2399902l2.1798706 0c0.041748047 -0.83955383 0.33129883 -1.4590149 0.8685913 -1.8584137c0.5401001 -0.3993988 1.348877 -0.5990906 2.4262695 -0.5990906c1.0273438 0 1.7762451 0.17796326 2.246704 0.5338898c0.47332764 0.3531952 0.70996094 0.888443 0.70996094 1.6057281c0 0.4727478 -0.16986084 0.8273163 -0.5095215 1.0636902c-0.33685303 0.2363739 -0.98132324 0.4156952 -1.9334717 0.53796387c-2.8146362 0.34233093 -4.6019897 0.8544922 -5.3619995 1.5364532c-0.7600708 0.67922974 -1.1400757 1.601654 -1.1400757 2.7672272c0 1.1574402 0.3883667 2.0526733 1.1651001 2.68573c0.7767334 0.6303406 1.8499756 0.94551086 3.2197266 0.94551086c0.9688721 0 1.8458252 -0.167099 2.6309204 -0.50128174c0.7850952 -0.33418274 1.4657593 -0.8354645 2.0420532 -1.5038452c0 0.67652893 0.1586914 1.1805267 0.47607422 1.5119934c0.3173828 0.3287506 0.7767334 0.49313354 1.3780518 0.49313354c0.30908203 0 0.5944214 -0.03125 0.85614014 -0.09373474c0.26446533 -0.059768677 0.49694824 -0.14671326 0.6973877 -0.26083374l0 -1.6505585c-0.10858154 0.032608032 -0.22137451 0.06112671 -0.33825684 0.08558655c-0.11694336 0.02444458 -0.2255249 0.03668213 -0.32574463 0.03668213c-0.4593506 0 -0.6890259 -0.24453735 -0.6890259 -0.73358154c0 -0.48905945 0 -2.9791718 0 -7.4703217c0 -1.0514679 -0.3786621 -1.8910217 -1.1359253 -2.5186462c-0.75445557 -0.62760925 -2.0336914 -0.9414215 -3.8377686 -0.9414215z" fill-rule="evenodd"/><path fill="#bf9000" d="m574.1085 189.80869c1.2109985 0 2.1464233 0.42655945 2.8062744 1.2796936c0.65979004 0.8504181 0.98968506 1.9684448 0.98968506 3.3541107c0 1.5242157 -0.35772705 2.7414246 -1.0732422 3.6516113c-0.7127075 0.90745544 -1.6704102 1.3611908 -2.873108 1.3611908c-1.1776123 0 -2.0963135 -0.4374237 -2.7561646 -1.3122864c-0.65979004 -0.877594 -0.98968506 -2.0866394 -0.98968506 -3.6271667c0 -1.4264069 0.34381104 -2.5675354 1.0314941 -3.4233856c0.6904297 -0.8558502 1.6453247 -1.2837677 2.864746 -1.2837677zm-0.08770752 -1.870636c-1.9293213 0 -3.4313354 0.6439209 -4.5059204 1.9317627c-1.0718384 1.2878418 -1.6077881 2.922104 -1.6077881 4.9027863c0 1.9562225 0.5359497 3.5374908 1.6077881 4.7438354c1.074585 1.2063293 2.5097656 1.8095093 4.305481 1.8095093c0.9437866 0 1.7845459 -0.21192932 2.5222778 -0.6357727c0.74053955 -0.42385864 1.2820435 -0.9944153 1.6245117 -1.7117004l0.050109863 0l0 0.8069458c0 1.6383362 -0.34246826 2.8731995 -1.0273438 3.7045898c-0.68481445 0.8313904 -1.6704102 1.2470856 -2.956604 1.2470856c-0.8769531 0 -1.6606445 -0.18611145 -2.3510742 -0.55833435c-0.6876831 -0.36950684 -1.0482178 -0.8843689 -1.081604 -1.5446014l-2.1798706 0c0.06677246 1.2307892 0.6194458 2.172226 1.6578369 2.824295c1.0412598 0.65208435 2.3218994 0.9781189 3.84198 0.9781189c2.0880127 0 3.6331177 -0.5298157 4.635376 -1.5894318c1.0022583 -1.0596161 1.5033569 -2.6042175 1.5033569 -4.6338043l0 -11.981857l-2.0420532 0l0 1.8584137l-0.02508545 0c-0.36749268 -0.6520691 -0.88946533 -1.1737366 -1.565979 -1.5649719c-0.6765137 -0.3912506 -1.4783325 -0.5868683 -2.4053955 -0.5868683z" fill-rule="evenodd"/><path fill="#bf9000" d="m588.71625 189.80869c1.0690308 0 1.9598999 0.34640503 2.6726074 1.0392456c0.71551514 0.6928253 1.1066895 1.5649719 1.1734619 2.6164398l-7.6170654 0c0.091918945 -1.1166687 0.49279785 -2.005127 1.2026978 -2.6653442c0.70996094 -0.66023254 1.56604 -0.9903412 2.5682983 -0.9903412zm0.15032959 -1.870636c-1.7957153 0 -3.2823486 0.63848877 -4.460022 1.9154663c-1.1776123 1.2742615 -1.7664185 2.8650513 -1.7664185 4.7723694c0 1.1492767 0.2296753 2.2727356 0.6890259 3.3703918c0.4593506 1.0949402 1.1706543 1.9507904 2.1339111 2.5675507c0.96606445 0.61402893 2.1464844 0.921051 3.5413208 0.921051c1.4949951 0 2.739441 -0.376297 3.7333374 -1.1289062c0.9938965 -0.75531006 1.6370239 -1.8502502 1.9293213 -3.2848206l-2.1548462 0c-0.175354 0.8069458 -0.5498047 1.4304962 -1.123352 1.870636c-0.5706787 0.44015503 -1.3404541 0.66023254 -2.3093262 0.66023254c-1.2861938 0 -2.296814 -0.37495422 -3.0317993 -1.1248322c-0.73498535 -0.7498779 -1.102478 -1.7402191 -1.102478 -2.9710083l0 -0.1589508l9.934753 0l0 -0.25674438c0 -2.0947876 -0.52612305 -3.8105621 -1.5784912 -5.1473083c-1.0523682 -1.3367615 -2.5307007 -2.005127 -4.4349365 -2.005127z" fill-rule="evenodd"/><path fill="#bf9000" d="m604.677 183.30424l0 17.87497l2.3051147 0l0 -14.879501l0.050109863 0l5.725342 14.879501l2.0796509 0l5.725342 -14.879501l0.050109863 0l0 14.879501l2.3051758 0l0 -17.87497l-3.3324585 0l-5.800476 15.014008l-5.7754517 -15.014008z" fill-rule="evenodd"/><path fill="#bf9000" d="m634.8195 194.4914l0 2.2251892c0 0.7335968 -0.36749268 1.3978882 -1.102478 1.9929047c-0.73498535 0.5950165 -1.7163696 0.89253235 -2.9440918 0.89253235c-0.81018066 0 -1.4407349 -0.167099 -1.8917236 -0.50128174c-0.4510498 -0.334198 -0.6765137 -0.8028717 -0.6765137 -1.4060364c0 -0.6846771 0.23382568 -1.2144928 0.7015381 -1.5894318c0.4677124 -0.37493896 1.1859741 -0.6316986 2.1548462 -0.7702637c0.96881104 -0.13041687 1.7455444 -0.240448 2.3302002 -0.33010864c0.58465576 -0.089660645 1.06073 -0.26083374 1.4282227 -0.513504zm-2.78125 -6.5533447c-1.7455444 0 -3.1027832 0.36271667 -4.071594 1.08815c-0.9688721 0.72543335 -1.4866943 1.8054199 -1.5535278 3.2399902l2.1799316 0c0.041748047 -0.83955383 0.33129883 -1.4590149 0.8685913 -1.8584137c0.5401001 -0.3993988 1.348877 -0.5990906 2.4262695 -0.5990906c1.0272827 0 1.7761841 0.17796326 2.246704 0.5338898c0.4732666 0.3531952 0.7098999 0.888443 0.7098999 1.6057281c0 0.4727478 -0.1697998 0.8273163 -0.50946045 1.0636902c-0.33685303 0.2363739 -0.9813843 0.4156952 -1.9334717 0.53796387c-2.8146362 0.34233093 -4.6019897 0.8544922 -5.3620605 1.5364532c-0.76000977 0.67922974 -1.1400146 1.601654 -1.1400146 2.7672272c0 1.1574402 0.3883667 2.0526733 1.1651001 2.68573c0.7767334 0.6303406 1.8499756 0.94551086 3.2197266 0.94551086c0.96881104 0 1.8457642 -0.167099 2.6308594 -0.50128174c0.7850952 -0.33418274 1.4658203 -0.8354645 2.0421143 -1.5038452c0 0.67652893 0.1586914 1.1805267 0.47607422 1.5119934c0.31732178 0.3287506 0.7767334 0.49313354 1.3780518 0.49313354c0.309021 0 0.5944214 -0.03125 0.8560791 -0.09373474c0.26446533 -0.059768677 0.49694824 -0.14671326 0.6973877 -0.26083374l0 -1.6505585c-0.10858154 0.032608032 -0.22131348 0.06112671 -0.33825684 0.08558655c-0.116882324 0.02444458 -0.22546387 0.03668213 -0.3256836 0.03668213c-0.45941162 0 -0.6890869 -0.24453735 -0.6890869 -0.73358154c0 -0.48905945 0 -2.9791718 0 -7.4703217c0 -1.0514679 -0.37860107 -1.8910217 -1.1358643 -2.5186462c-0.75445557 -0.62760925 -2.0336914 -0.9414215 -3.8377686 -0.9414215z" fill-rule="evenodd"/><path fill="#bf9000" d="m646.8214 187.93805c-0.98553467 0 -1.8319092 0.19018555 -2.5390625 0.57055664c-0.7043457 0.3776703 -1.298706 0.9699707 -1.7831421 1.7769012l-0.050109863 0l0 -2.0540314l-2.0546265 0l0 12.947739l2.1799316 0l0 -7.3969574c0 -1.1737366 0.34381104 -2.1287537 1.0314331 -2.8650513c0.6904297 -0.7390137 1.6495361 -1.1085205 2.8773193 -1.1085205c0.8518677 0 1.517273 0.23908997 1.9960938 0.71728516c0.48168945 0.47546387 0.72247314 1.0799866 0.72247314 1.8135681l0 8.839676l2.1798706 0l0 -8.619598c0 -1.4834595 -0.36187744 -2.624588 -1.0857544 -3.4233856c-0.72106934 -0.79878235 -1.8792114 -1.1981812 -3.4744263 -1.1981812z" fill-rule="evenodd"/><path fill="#bf9000" d="m662.8699 194.4914l0 2.2251892c0 0.7335968 -0.36749268 1.3978882 -1.102478 1.9929047c-0.73498535 0.5950165 -1.7163696 0.89253235 -2.9440918 0.89253235c-0.81018066 0 -1.4407349 -0.167099 -1.8917847 -0.50128174c-0.45098877 -0.334198 -0.6765137 -0.8028717 -0.6765137 -1.4060364c0 -0.6846771 0.23388672 -1.2144928 0.7015991 -1.5894318c0.4677124 -0.37493896 1.1859741 -0.6316986 2.1548462 -0.7702637c0.96881104 -0.13041687 1.7455444 -0.240448 2.3302002 -0.33010864c0.58465576 -0.089660645 1.06073 -0.26083374 1.4282227 -0.513504zm-2.78125 -6.5533447c-1.7456055 0 -3.1027832 0.36271667 -4.071594 1.08815c-0.9688721 0.72543335 -1.4866943 1.8054199 -1.5535278 3.2399902l2.1799316 0c0.041748047 -0.83955383 0.3312378 -1.4590149 0.8685913 -1.8584137c0.5401001 -0.3993988 1.3488159 -0.5990906 2.4262695 -0.5990906c1.0272827 0 1.7761841 0.17796326 2.246704 0.5338898c0.4732666 0.3531952 0.7098999 0.888443 0.7098999 1.6057281c0 0.4727478 -0.1697998 0.8273163 -0.50946045 1.0636902c-0.33685303 0.2363739 -0.9813843 0.4156952 -1.9335327 0.53796387c-2.8146362 0.34233093 -4.6019287 0.8544922 -5.3619995 1.5364532c-0.76000977 0.67922974 -1.1400146 1.601654 -1.1400146 2.7672272c0 1.1574402 0.3883667 2.0526733 1.1651001 2.68573c0.7767334 0.6303406 1.8499756 0.94551086 3.2197266 0.94551086c0.96881104 0 1.8457642 -0.167099 2.6308594 -0.50128174c0.7850952 -0.33418274 1.4658203 -0.8354645 2.0421143 -1.5038452c0 0.67652893 0.15863037 1.1805267 0.47601318 1.5119934c0.3173828 0.3287506 0.7767334 0.49313354 1.3781128 0.49313354c0.309021 0 0.59436035 -0.03125 0.8560791 -0.09373474c0.26446533 -0.059768677 0.49694824 -0.14671326 0.6973877 -0.26083374l0 -1.6505585c-0.10858154 0.032608032 -0.22131348 0.06112671 -0.33825684 0.08558655c-0.11694336 0.02444458 -0.2255249 0.03668213 -0.32574463 0.03668213c-0.4593506 0 -0.6890259 -0.24453735 -0.6890259 -0.73358154c0 -0.48905945 0 -2.9791718 0 -7.4703217c0 -1.0514679 -0.37860107 -1.8910217 -1.1358643 -2.5186462c-0.75445557 -0.62760925 -2.0337524 -0.9414215 -3.8377686 -0.9414215z" fill-rule="evenodd"/><path fill="#bf9000" d="m673.9321 189.80869c1.2110596 0 2.1464844 0.42655945 2.8062744 1.2796936c0.6598511 0.8504181 0.9897461 1.9684448 0.9897461 3.3541107c0 1.5242157 -0.3577881 2.7414246 -1.0732422 3.6516113c-0.7127075 0.90745544 -1.6704102 1.3611908 -2.873108 1.3611908c-1.1776123 0 -2.0963745 -0.4374237 -2.7561646 -1.3122864c-0.6598511 -0.877594 -0.9897461 -2.0866394 -0.9897461 -3.6271667c0 -1.4264069 0.34381104 -2.5675354 1.0314941 -3.4233856c0.6904297 -0.8558502 1.6453247 -1.2837677 2.864746 -1.2837677zm-0.08770752 -1.870636c-1.9293213 0 -3.4312744 0.6439209 -4.5059204 1.9317627c-1.0718384 1.2878418 -1.6077881 2.922104 -1.6077881 4.9027863c0 1.9562225 0.5359497 3.5374908 1.6077881 4.7438354c1.074646 1.2063293 2.5098267 1.8095093 4.305481 1.8095093c0.9437866 0 1.7845459 -0.21192932 2.5223389 -0.6357727c0.74053955 -0.42385864 1.2820435 -0.9944153 1.6244507 -1.7117004l0.050109863 0l0 0.8069458c0 1.6383362 -0.34240723 2.8731995 -1.0272827 3.7045898c-0.6848755 0.8313904 -1.6704102 1.2470856 -2.956604 1.2470856c-0.87701416 0 -1.6607056 -0.18611145 -2.3511353 -0.55833435c-0.6876221 -0.36950684 -1.0481567 -0.8843689 -1.081604 -1.5446014l-2.1798706 0c0.066833496 1.2307892 0.6194458 2.172226 1.657898 2.824295c1.0411987 0.65208435 2.3218384 0.9781189 3.841919 0.9781189c2.0880127 0 3.6331787 -0.5298157 4.635376 -1.5894318c1.0022583 -1.0596161 1.503418 -2.6042175 1.503418 -4.6338043l0 -11.981857l-2.0421143 0l0 1.8584137l-0.025024414 0c-0.36749268 -0.6520691 -0.88952637 -1.1737366 -1.56604 -1.5649719c-0.6765137 -0.3912506 -1.4782715 -0.5868683 -2.4053955 -0.5868683z" fill-rule="evenodd"/><path fill="#bf9000" d="m688.53986 189.80869c1.0690918 0 1.9599609 0.34640503 2.6726685 1.0392456c0.7154541 0.6928253 1.1066284 1.5649719 1.1734619 2.6164398l-7.6170654 0c0.09185791 -1.1166687 0.49273682 -2.005127 1.2026978 -2.6653442c0.7098999 -0.66023254 1.565979 -0.9903412 2.5682373 -0.9903412zm0.15032959 -1.870636c-1.7956543 0 -3.2823486 0.63848877 -4.459961 1.9154663c-1.1776733 1.2742615 -1.7664795 2.8650513 -1.7664795 4.7723694c0 1.1492767 0.2296753 2.2727356 0.6890259 3.3703918c0.45941162 1.0949402 1.1707153 1.9507904 2.1339722 2.5675507c0.96606445 0.61402893 2.1464844 0.921051 3.5412598 0.921051c1.4949951 0 2.739502 -0.376297 3.7333374 -1.1289062c0.9938965 -0.75531006 1.6370239 -1.8502502 1.9293823 -3.2848206l-2.1548462 0c-0.17541504 0.8069458 -0.5498657 1.4304962 -1.123352 1.870636c-0.57073975 0.44015503 -1.3405151 0.66023254 -2.3093262 0.66023254c-1.2862549 0 -2.296814 -0.37495422 -3.0317993 -1.1248322c-0.73498535 -0.7498779 -1.102478 -1.7402191 -1.102478 -2.9710083l0 -0.1589508l9.934753 0l0 -0.25674438c0 -2.0947876 -0.5261841 -3.8105621 -1.5785522 -5.1473083c-1.0523682 -1.3367615 -2.5306396 -2.005127 -4.4349365 -2.005127z" fill-rule="evenodd"/><path fill="#bf9000" d="m703.56104 187.92583c-1.0440063 0 -1.9404907 0.24859619 -2.689392 0.74580383c-0.74609375 0.49720764 -1.3739014 1.2593231 -1.8833618 2.2863312l-0.050109863 0l0 -2.7264862l-2.0546265 0l0 12.947739l2.1798706 0l0 -5.7953033c0 -1.768753 0.3897705 -3.0769653 1.1693115 -3.9246674c0.7822876 -0.847702 1.9919434 -1.2715454 3.6289673 -1.2715454l0 -2.249649c-0.066833496 -0.008148193 -0.12109375 -0.01222229 -0.16290283 -0.01222229z" fill-rule="evenodd"/></g></svg>